<svg width="65" height="64" viewBox="0 0 65 64" fill="none" xmlns="http://www.w3.org/2000/svg">
<path d="M60.667 0H12.667C9.48439 0 6.43215 1.12381 4.18171 3.12419C1.93127 5.12458 0.666992 7.83769 0.666992 10.6667V53.3333C0.666992 56.1623 1.93127 58.8754 4.18171 60.8758C6.43215 62.8762 9.48439 64 12.667 64H60.667C61.7279 64 62.7453 63.6254 63.4954 62.9586C64.2456 62.2918 64.667 61.3874 64.667 60.4444V3.55556C64.667 2.61256 64.2456 1.70819 63.4954 1.0414C62.7453 0.374602 61.7279 0 60.667 0ZM12.667 56.8889C11.6061 56.8889 10.5887 56.5143 9.83857 55.8475C9.08842 55.1807 8.66699 54.2763 8.66699 53.3333C8.66699 52.3903 9.08842 51.486 9.83857 50.8192C10.5887 50.1524 11.6061 49.7778 12.667 49.7778H56.667V56.8889H12.667Z" fill="black"/>
</svg>
