<svg width="64" height="64" viewBox="0 0 64 64" fill="none" xmlns="http://www.w3.org/2000/svg">
<path d="M60 0H12C8.8174 0 5.76516 1.12381 3.51472 3.12419C1.26428 5.12458 0 7.83769 0 10.6667V53.3333C0 56.1623 1.26428 58.8754 3.51472 60.8758C5.76516 62.8762 8.8174 64 12 64H60C61.0609 64 62.0783 63.6254 62.8284 62.9586C63.5786 62.2918 64 61.3874 64 60.4444V3.55556C64 2.61256 63.5786 1.70819 62.8284 1.0414C62.0783 0.374602 61.0609 0 60 0ZM12 56.8889C10.9391 56.8889 9.92172 56.5143 9.17157 55.8475C8.42143 55.1807 8 54.2763 8 53.3333C8 52.3903 8.42143 51.486 9.17157 50.8192C9.92172 50.1524 10.9391 49.7778 12 49.7778H56V56.8889H12Z" fill="#24116A"/>
</svg>
