<svg width="64" height="64" viewBox="0 0 64 64" fill="none" xmlns="http://www.w3.org/2000/svg">
<path d="M32 2C26.0666 2 20.2664 3.75947 15.3329 7.05591C10.3994 10.3524 6.55426 15.0377 4.28363 20.5195C2.013 26.0013 1.4189 32.0333 2.57646 37.8527C3.73401 43.6721 6.59123 49.0176 10.7868 53.2132C14.9824 57.4088 20.3279 60.266 26.1473 61.4236C31.9667 62.5811 37.9987 61.987 43.4805 59.7164C48.9623 57.4458 53.6477 53.6006 56.9441 48.6671C60.2405 43.7336 62 37.9334 62 32C62 24.0435 58.8393 16.4129 53.2132 10.7868C47.5871 5.16071 39.9565 2 32 2ZM48.86 39.21C48.9506 39.6577 48.9975 40.1132 49 40.57C49.036 42.1365 48.5135 43.6646 47.526 44.8811C46.5385 46.0976 45.1504 46.9232 43.61 47.21C43.4428 48.7723 42.7138 50.2207 41.5586 51.2857C40.4034 52.3508 38.9007 52.96 37.33 53C36.2493 52.9887 35.19 52.6971 34.2557 52.1537C33.3215 51.6103 32.5442 50.8338 32 49.9C31.4558 50.8338 30.6785 51.6103 29.7443 52.1537C28.81 52.6971 27.7507 52.9887 26.67 53C25.0993 52.96 23.5966 52.3508 22.4414 51.2857C21.2862 50.2207 20.5572 48.7723 20.39 47.21C18.8496 46.9232 17.4615 46.0976 16.474 44.8811C15.4865 43.6646 14.964 42.1365 15 40.57C15.0025 40.1132 15.0494 39.6577 15.14 39.21C13.8801 38.4747 12.8349 37.4221 12.1084 36.1571C11.382 34.8921 10.9997 33.4588 10.9997 32C10.9997 30.5412 11.382 29.1079 12.1084 27.8429C12.8349 26.5779 13.8801 25.5253 15.14 24.79C15.0494 24.3423 15.0025 23.8868 15 23.43C14.964 21.8635 15.4865 20.3354 16.474 19.1189C17.4615 17.9024 18.8496 17.0768 20.39 16.79C20.5572 15.2277 21.2862 13.7793 22.4414 12.7143C23.5966 11.6492 25.0993 11.04 26.67 11C27.7507 11.0113 28.81 11.3029 29.7443 11.8463C30.6785 12.3897 31.4558 13.1662 32 14.1C32.5442 13.1662 33.3215 12.3897 34.2557 11.8463C35.19 11.3029 36.2493 11.0113 37.33 11C38.9007 11.04 40.4034 11.6492 41.5586 12.7143C42.7138 13.7793 43.4428 15.2277 43.61 16.79C45.1504 17.0768 46.5385 17.9024 47.526 19.1189C48.5135 20.3354 49.036 21.8635 49 23.43C48.9975 23.8868 48.9506 24.3423 48.86 24.79C50.1199 25.5253 51.1652 26.5779 51.8916 27.8429C52.618 29.1079 53.0003 30.5412 53.0003 32C53.0003 33.4588 52.618 34.8921 51.8916 36.1571C51.1652 37.4221 50.1199 38.4747 48.86 39.21Z" fill="black"/>
<path d="M48.0302 26.63C47.6282 27.3071 47.0678 27.8766 46.3972 28.2894C45.7266 28.7022 44.9658 28.946 44.1802 29H44.0602C42.1102 28.94 40.3402 27.3 39.0802 24.4L40.9202 23.6C41.8402 25.73 43.0102 26.96 44.1302 27C45.0202 27.03 45.9202 26.32 46.7202 25.02C46.7202 25.01 46.7202 25.01 46.7302 25C46.903 24.4943 46.9941 23.9643 47.0002 23.43C47.03 22.3739 46.6983 21.3392 46.06 20.4973C45.4218 19.6553 44.5151 19.0565 43.4902 18.8C42.6346 19.5595 41.5342 19.9854 40.3902 20C40.2331 20.0003 40.0761 19.9903 39.9202 19.97C39.1603 19.8645 38.4323 19.5953 37.7865 19.1809C37.1408 18.7665 36.5927 18.2169 36.1802 17.57L37.8202 16.43C38.0739 16.8379 38.4107 17.1877 38.8088 17.4565C39.2068 17.7253 39.6571 17.9071 40.1302 17.99C40.6681 18.0463 41.2095 17.9232 41.6702 17.64C41.6983 16.4524 41.2595 15.3011 40.448 14.4335C39.6365 13.566 38.5171 13.0512 37.3302 13C36.1324 13.053 35.0043 13.5783 34.1928 14.461C33.3813 15.3437 32.9525 16.5119 33.0002 17.71V20.57H31.0002V17.71C31.0479 16.5119 30.6191 15.3437 29.8077 14.461C28.9962 13.5783 27.8681 13.053 26.6702 13C25.4834 13.0512 24.364 13.566 23.5525 14.4335C22.741 15.3011 22.3021 16.4524 22.3302 17.64C22.7909 17.9232 23.3323 18.0463 23.8702 17.99C24.3433 17.9071 24.7936 17.7253 25.1917 17.4565C25.5897 17.1877 25.9266 16.8379 26.1802 16.43L27.8202 17.57C27.4077 18.2169 26.8596 18.7665 26.2139 19.1809C25.5682 19.5953 24.8402 19.8645 24.0802 19.97C23.9244 19.9903 23.7674 20.0003 23.6102 20C22.4663 19.9854 21.3658 19.5595 20.5102 18.8C19.4853 19.0565 18.5787 19.6553 17.9404 20.4973C17.3021 21.3392 16.9704 22.3739 17.0002 23.43C17.0063 23.9611 17.0975 24.4878 17.2702 24.99C18.0602 26.28 18.9702 27 19.8302 27H19.8702C20.9902 26.96 22.1602 25.73 23.0802 23.6L24.9202 24.4C23.6602 27.3 21.8902 28.94 19.9402 29H19.8202C19.0346 28.946 18.2738 28.7022 17.6032 28.2894C16.9326 27.8766 16.3722 27.3071 15.9702 26.63C15.0611 27.2005 14.3118 27.9925 13.7924 28.9318C13.273 29.871 13.0005 30.9267 13.0005 32C13.0005 33.0733 13.273 34.129 13.7924 35.0682C14.3118 36.0075 15.0611 36.7995 15.9702 37.37C16.381 36.6745 16.9597 36.0931 17.6532 35.6791C18.3468 35.2651 19.1331 35.0316 19.9402 35C21.8902 35.06 23.6602 36.7 24.9202 39.6L23.0802 40.4C22.1602 38.27 20.9902 37.04 19.8702 37C19.0002 36.98 18.0802 37.7 17.2702 39.01V39.02C17.0976 39.5188 17.0064 40.0422 17.0002 40.57C16.9704 41.6261 17.3021 42.6608 17.9404 43.5027C18.5787 44.3447 19.4853 44.9435 20.5102 45.2C20.9932 44.7705 21.5594 44.445 22.1735 44.2437C22.7877 44.0425 23.4367 43.9697 24.0802 44.03C24.8402 44.1355 25.5682 44.4047 26.2139 44.8191C26.8596 45.2335 27.4077 45.7831 27.8202 46.43L26.1802 47.57C25.9266 47.1621 25.5897 46.8123 25.1917 46.5435C24.7936 46.2747 24.3433 46.0929 23.8702 46.01C23.3323 45.9526 22.7905 46.0758 22.3302 46.36C22.3021 47.5476 22.741 48.6989 23.5525 49.5665C24.364 50.4341 25.4834 50.9487 26.6702 51C27.8681 50.947 28.9962 50.4217 29.8077 49.539C30.6191 48.6563 31.0479 47.4881 31.0002 46.29V43.43H33.0002V46.29C32.9525 47.4881 33.3813 48.6563 34.1928 49.539C35.0043 50.4217 36.1324 50.947 37.3302 51C38.5171 50.9487 39.6365 50.4341 40.448 49.5665C41.2595 48.6989 41.6983 47.5476 41.6702 46.36C41.2099 46.0758 40.6682 45.9526 40.1302 46.01C39.6571 46.0929 39.2068 46.2747 38.8088 46.5435C38.4107 46.8123 38.0739 47.1621 37.8202 47.57L36.1802 46.43C36.5927 45.7831 37.1408 45.2335 37.7865 44.8191C38.4323 44.4047 39.1603 44.1355 39.9202 44.03C40.5638 43.969 41.2129 44.0415 41.8272 44.2428C42.4415 44.4441 43.0076 44.77 43.4902 45.2C44.5151 44.9435 45.4218 44.3447 46.06 43.5027C46.6983 42.6608 47.03 41.6261 47.0002 40.57C46.9941 40.0389 46.9029 39.5122 46.7302 39.01C45.9402 37.72 45.0302 37 44.1702 37H44.1302C43.0102 37.04 41.8402 38.27 40.9202 40.4L39.0802 39.6C40.3402 36.7 42.1102 35.06 44.0602 35C44.8671 35.0327 45.6529 35.2667 46.3463 35.6806C47.0397 36.0946 47.6185 36.6753 48.0302 37.37C48.9393 36.7995 49.6886 36.0075 50.2081 35.0682C50.7275 34.129 51 33.0733 51 32C51 30.9267 50.7275 29.871 50.2081 28.9318C49.6886 27.9925 48.9393 27.2005 48.0302 26.63Z" fill="black"/>
</svg>
