<svg width="64" height="64" viewBox="0 0 64 64" fill="none" xmlns="http://www.w3.org/2000/svg">
<path d="M32 0C25.671 0 19.4841 1.87677 14.2218 5.39297C8.95939 8.90918 4.85787 13.9069 2.43587 19.7541C0.0138654 25.6014 -0.619842 32.0355 0.614885 38.2429C1.84961 44.4503 4.89732 50.1521 9.37259 54.6274C13.8479 59.1027 19.5497 62.1504 25.7571 63.3851C31.9645 64.6198 38.3986 63.9861 44.2459 61.5641C50.0931 59.1421 55.0908 55.0406 58.607 49.7782C62.1232 44.5159 64 38.329 64 32C64 23.5131 60.6286 15.3737 54.6274 9.37258C48.6263 3.37142 40.4869 0 32 0ZM49.984 39.6907C50.0806 40.1682 50.1306 40.6541 50.1333 41.1413C50.1717 42.8122 49.6144 44.4422 48.5611 45.7399C47.5077 47.0375 46.0271 47.918 44.384 48.224C44.2056 49.8904 43.428 51.4354 42.1958 52.5714C40.9636 53.7075 39.3608 54.3573 37.6853 54.4C36.5326 54.3879 35.4027 54.0769 34.4061 53.4972C33.4096 52.9176 32.5805 52.0893 32 51.0933C31.4195 52.0893 30.5904 52.9176 29.5939 53.4972C28.5974 54.0769 27.4674 54.3879 26.3147 54.4C24.6392 54.3573 23.0364 53.7075 21.8042 52.5714C20.572 51.4354 19.7944 49.8904 19.616 48.224C17.9729 47.918 16.4923 47.0375 15.439 45.7399C14.3856 44.4422 13.8283 42.8122 13.8667 41.1413C13.8694 40.6541 13.9194 40.1682 14.016 39.6907C12.6721 38.9064 11.5572 37.7836 10.7823 36.4342C10.0075 35.0849 9.59972 33.556 9.59972 32C9.59972 30.444 10.0075 28.9151 10.7823 27.5658C11.5572 26.2164 12.6721 25.0936 14.016 24.3093C13.9194 23.8317 13.8694 23.3459 13.8667 22.8587C13.8283 21.1878 14.3856 19.5577 15.439 18.2601C16.4923 16.9625 17.9729 16.082 19.616 15.776C19.7944 14.1095 20.572 12.5646 21.8042 11.4286C23.0364 10.2925 24.6392 9.64271 26.3147 9.6C27.4674 9.61209 28.5974 9.92314 29.5939 10.5027C30.5904 11.0823 31.4195 11.9107 32 12.9067C32.5805 11.9107 33.4096 11.0823 34.4061 10.5027C35.4027 9.92314 36.5326 9.61209 37.6853 9.6C39.3608 9.64271 40.9636 10.2925 42.1958 11.4286C43.428 12.5646 44.2056 14.1095 44.384 15.776C46.0271 16.082 47.5077 16.9625 48.5611 18.2601C49.6144 19.5577 50.1717 21.1878 50.1333 22.8587C50.1306 23.3459 50.0806 23.8317 49.984 24.3093C51.3279 25.0936 52.4428 26.2164 53.2177 27.5658C53.9925 28.9151 54.4003 30.444 54.4003 32C54.4003 33.556 53.9925 35.0849 53.2177 36.4342C52.4428 37.7836 51.3279 38.9064 49.984 39.6907Z" fill="#24116A"/>
<path d="M48.0297 26.8928C47.6277 27.5829 47.0673 28.1633 46.3967 28.5841C45.7261 29.0049 44.9653 29.2534 44.1797 29.3084H44.0597C42.1097 29.2473 40.3397 27.5757 39.0797 24.6198L40.9197 23.8043C41.8397 25.9754 43.0097 27.2291 44.1297 27.2699C45.0197 27.3005 45.9197 26.5768 46.7197 25.2517C46.7197 25.2415 46.7197 25.2415 46.7297 25.2313C46.9025 24.7159 46.9936 24.1757 46.9997 23.6311C47.0295 22.5546 46.6978 21.5 46.0595 20.6418C45.4213 19.7836 44.5146 19.1733 43.4897 18.9118C42.6341 19.6859 41.5337 20.1201 40.3897 20.1349C40.2326 20.1352 40.0756 20.125 39.9197 20.1044C39.1598 19.9968 38.4318 19.7224 37.786 19.3001C37.1403 18.8777 36.5923 18.3175 36.1797 17.6581L37.8197 16.4961C38.0734 16.9119 38.4102 17.2684 38.8083 17.5424C39.2063 17.8164 39.6566 18.0017 40.1297 18.0862C40.6676 18.1436 41.209 18.0181 41.6697 17.7294C41.6978 16.5189 41.259 15.3455 40.4475 14.4612C39.636 13.5769 38.5166 13.0522 37.3297 13C36.1319 13.054 35.0038 13.5895 34.1923 14.4892C33.3808 15.3889 32.952 16.5796 32.9997 17.8008V20.7159H30.9997V17.8008C31.0474 16.5796 30.6186 15.3889 29.8072 14.4892C28.9957 13.5895 27.8676 13.054 26.6697 13C25.4829 13.0522 24.3635 13.5769 23.552 14.4612C22.7405 15.3455 22.3017 16.5189 22.3297 17.7294C22.7904 18.0181 23.3318 18.1436 23.8697 18.0862C24.3428 18.0017 24.7931 17.8164 25.1912 17.5424C25.5892 17.2684 25.9261 16.9119 26.1797 16.4961L27.8197 17.6581C27.4072 18.3175 26.8591 18.8777 26.2134 19.3001C25.5677 19.7224 24.8397 19.9968 24.0797 20.1044C23.9239 20.125 23.7669 20.1352 23.6097 20.1349C22.4658 20.1201 21.3653 19.6859 20.5097 18.9118C19.4848 19.1733 18.5782 19.7836 17.9399 20.6418C17.3016 21.5 16.9699 22.5546 16.9997 23.6311C17.0058 24.1724 17.097 24.7092 17.2697 25.2211C18.0597 26.536 18.9697 27.2699 19.8297 27.2699H19.8697C20.9897 27.2291 22.1597 25.9754 23.0797 23.8043L24.9197 24.6198C23.6597 27.5757 21.8897 29.2473 19.9397 29.3084H19.8197C19.0341 29.2534 18.2733 29.0049 17.6027 28.5841C16.9321 28.1633 16.3717 27.5829 15.9697 26.8928C15.0607 27.4743 14.3113 28.2816 13.7919 29.2389C13.2725 30.1962 13 31.2723 13 32.3663C13 33.4602 13.2725 34.5363 13.7919 35.4937C14.3113 36.451 15.0607 37.2582 15.9697 37.8398C16.3805 37.1309 16.9592 36.5383 17.6527 36.1163C18.3463 35.6943 19.1326 35.4563 19.9397 35.4241C21.8897 35.4853 23.6597 37.1569 24.9197 40.1128L23.0797 40.9282C22.1597 38.7571 20.9897 37.5034 19.8697 37.4627C18.9997 37.4423 18.0797 38.1762 17.2697 39.5114V39.5216C17.0971 40.03 17.0059 40.5635 16.9997 41.1015C16.9699 42.178 17.3016 43.2326 17.9399 44.0907C18.5782 44.9489 19.4848 45.5592 20.5097 45.8207C20.9927 45.383 21.5589 45.0512 22.1731 44.846C22.7872 44.6409 23.4362 44.5667 24.0797 44.6282C24.8397 44.7357 25.5677 45.0101 26.2134 45.4325C26.8591 45.8548 27.4072 46.4151 27.8197 47.0744L26.1797 48.2364C25.9261 47.8207 25.5892 47.4641 25.1912 47.1901C24.7931 46.9161 24.3428 46.7308 23.8697 46.6463C23.3318 46.5879 22.79 46.7134 22.3297 47.0031C22.3017 48.2136 22.7405 49.3871 23.552 50.2714C24.3635 51.1557 25.4829 51.6803 26.6697 51.7325C27.8676 51.6785 28.9957 51.1431 29.8072 50.2434C30.6186 49.3436 31.0474 48.1529 30.9997 46.9317V44.0166H32.9997V46.9317C32.952 48.1529 33.3808 49.3436 34.1923 50.2434C35.0038 51.1431 36.1319 51.6785 37.3297 51.7325C38.5166 51.6803 39.636 51.1557 40.4475 50.2714C41.259 49.3871 41.6978 48.2136 41.6697 47.0031C41.2094 46.7134 40.6677 46.5879 40.1297 46.6463C39.6566 46.7308 39.2063 46.9161 38.8083 47.1901C38.4102 47.4641 38.0734 47.8207 37.8197 48.2364L36.1797 47.0744C36.5923 46.4151 37.1403 45.8548 37.786 45.4325C38.4318 45.0101 39.1598 44.7357 39.9197 44.6282C40.5633 44.566 41.2124 44.6399 41.8267 44.8451C42.441 45.0503 43.0071 45.3824 43.4897 45.8207C44.5146 45.5592 45.4213 44.9489 46.0595 44.0907C46.6978 43.2326 47.0295 42.178 46.9997 41.1015C46.9936 40.5602 46.9024 40.0233 46.7297 39.5114C45.9397 38.1965 45.0297 37.4627 44.1697 37.4627H44.1297C43.0097 37.5034 41.8397 38.7571 40.9197 40.9282L39.0797 40.1128C40.3397 37.1569 42.1097 35.4853 44.0597 35.4241C44.8666 35.4575 45.6524 35.696 46.3458 36.1179C47.0392 36.5398 47.618 37.1317 48.0297 37.8398C48.9388 37.2582 49.6881 36.451 50.2076 35.4937C50.727 34.5363 50.9995 33.4602 50.9995 32.3663C50.9995 31.2723 50.727 30.1962 50.2076 29.2389C49.6881 28.2816 48.9388 27.4743 48.0297 26.8928Z" fill="#24116A"/>
</svg>
