<svg width="64" height="64" viewBox="0 0 64 64" fill="none" xmlns="http://www.w3.org/2000/svg">
<path d="M62.1194 16.0372C63.1877 16.445 63.9458 17.681 64 19.1578V57.6837C63.9409 59.2633 63.0646 60.4191 61.8412 60.9295C52.1182 65.0165 41.5015 65.0133 31.8154 60.9809C26.9268 58.9455 21.8117 57.6869 16.6769 57.7704C12.1182 57.8443 7.55938 58.8588 3.23938 60.7273C3.23938 60.7273 2.39262 61.058 1.63938 60.708C0.686769 60.2682 0.0492308 59.0129 0 57.6837V6.31588C0.0590769 4.73311 0.935385 3.58054 2.15877 3.06686C11.8622 -1.01046 22.4985 -1.01688 32.1846 3.01549C34.2942 3.89517 36.4308 4.70742 38.6117 5.24036C45.9495 7.03824 53.6665 6.34156 60.7606 3.26912L61.216 3.13107C61.4228 3.1086 61.4745 3.09254 61.6837 3.1086C63.84 3.27554 65.1692 8.1298 62.1982 9.41079C62.1194 9.4461 62.0406 9.47821 61.9594 9.51353C52.1822 13.6583 41.4868 13.6422 31.8154 9.61305C27.3058 7.73492 22.6215 6.49887 17.8954 6.40577C13.5311 6.31909 9.16185 7.0864 4.95262 8.66596L4.92308 53.3881C13.9397 50.3574 23.4092 50.7298 32.1846 54.3834C40.8492 57.9919 50.2597 58.6276 59.0474 55.3304L59.0769 19.1578C59.0769 19.1578 59.7218 15.4337 62.1194 16.0372ZM51.8154 44.9156C53.5803 45.0761 54.784 48.0266 53.6862 50.0042C53.0215 51.1985 51.7711 51.3623 50.4886 51.4971C47.584 51.8021 44.6302 51.7283 41.7502 51.3366C40.1428 51.1183 38.9465 48.8035 39.5815 46.8612C40.0468 45.4389 41.2997 44.8257 42.5575 44.9894C45.5065 45.3587 48.4751 45.3522 51.424 44.9317C51.424 44.9317 51.5495 44.906 51.8154 44.9156ZM32.064 19.2124C36.5858 19.267 40.8098 23.8195 41.6394 29.6594C42.7692 37.6053 37.0782 46.2319 30.208 44.5721C26.2302 43.6089 22.8898 39.1078 22.2991 33.8619C21.5015 26.7635 25.9618 19.3826 31.8105 19.2124C31.8942 19.2124 31.9778 19.2124 32.064 19.2124ZM31.968 25.6334C28.768 25.6719 26.112 30.6065 27.5742 34.6838C28.6178 37.5989 31.5323 39.1271 33.8437 37.8943C36.3446 36.5619 37.6197 32.2438 36.32 29.0365C35.5126 27.0364 33.856 25.6848 32.096 25.6334C32.0542 25.6334 32.0098 25.6334 31.968 25.6334ZM17.3932 12.8075C19.0178 12.8171 20.6449 12.9327 22.2597 13.1606C22.7988 13.2377 24.448 14.2169 24.6006 16.0244C24.7557 17.864 23.4634 19.71 21.984 19.5784C18.9342 19.3023 15.7292 19.1322 12.5662 19.5688C12.5662 19.5688 11.3034 19.5784 10.5945 18.6795C9.31692 17.0646 9.93477 13.5812 11.9532 13.1992C13.6886 12.8685 15.5643 12.8043 17.3932 12.8075Z" fill="#24116A"/>
</svg>
