<svg width="64" height="64" viewBox="0 0 64 64" fill="none" xmlns="http://www.w3.org/2000/svg">
<path d="M49 5H38V7H49C55.065 7 60 11.935 60 18V24C60 30.065 55.065 35 49 35H35V31L27 36L35 41V37H49C56.168 37 62 31.168 62 24V18C62 10.832 56.168 5 49 5ZM4 24V18C4 11.935 8.935 7 15 7H28V11L36 6L28 1V5H15C7.832 5 2 10.832 2 18V24C2 31.168 7.832 37 15 37H24V35H15C8.935 35 4 30.065 4 24Z" fill="black"/>
<path d="M26.5061 22.681C26.6391 22.679 26.7661 22.625 26.8591 22.53C26.9511 22.435 27.0031 22.307 27.0011 22.175L26.9551 18.584C26.9501 18.309 26.7441 18.127 26.4491 18.091L24.7951 18.112C24.6521 17.678 24.4731 17.258 24.2571 16.859L25.4111 15.674C25.6031 15.477 25.5991 15.16 25.4011 14.967L22.8301 12.46C22.7371 12.369 22.6111 12.318 22.4811 12.318C22.4791 12.318 22.4771 12.318 22.4741 12.318C22.3421 12.32 22.2151 12.374 22.1221 12.469L20.9691 13.653C20.5631 13.447 20.1381 13.278 19.7011 13.148L19.6801 11.495C19.6781 11.362 19.6241 11.235 19.5291 11.142C19.4371 11.051 19.3111 11 19.1811 11C19.1791 11 19.1771 11 19.1741 11L15.5831 11.046C15.3081 11.05 15.0871 11.276 15.0901 11.552L15.1111 13.206C14.6771 13.349 14.2571 13.528 13.8581 13.744L12.6731 12.59C12.4771 12.399 12.1601 12.402 11.9661 12.6L9.45906 15.171C9.36706 15.266 9.31506 15.394 9.31706 15.526C9.31906 15.658 9.37306 15.785 9.46806 15.878L10.6521 17.031C10.4461 17.437 10.2771 17.862 10.1471 18.299L8.49406 18.32C8.36106 18.322 8.23406 18.376 8.14106 18.471C8.05006 18.565 7.99806 18.693 8.00006 18.826L8.04606 22.417C8.05006 22.692 8.29206 22.945 8.55206 22.91L10.2061 22.889C10.3491 23.323 10.5281 23.743 10.7441 24.142L9.59006 25.327C9.39806 25.524 9.40206 25.841 9.60006 26.034L12.1711 28.541C12.2641 28.632 12.3901 28.683 12.5201 28.683C12.5221 28.683 12.5241 28.683 12.5271 28.683C12.6591 28.681 12.7861 28.627 12.8791 28.532L14.0321 27.348C14.4381 27.554 14.8631 27.723 15.3001 27.853L15.3211 29.506C15.3231 29.639 15.3771 29.766 15.4721 29.859C15.5641 29.949 15.6901 30 15.8191 30C15.8211 30 15.8231 30 15.8261 30L19.4171 29.954C19.6921 29.95 19.9131 29.724 19.9101 29.448L19.8891 27.794C20.3231 27.651 20.7431 27.472 21.1421 27.256L22.3271 28.41C22.5241 28.603 22.8401 28.599 23.0341 28.4L25.5411 25.829C25.6331 25.734 25.6851 25.606 25.6831 25.474C25.6811 25.342 25.6271 25.215 25.5321 25.122L24.3481 23.969C24.5541 23.563 24.7231 23.138 24.8531 22.701L26.5061 22.681ZM17.5511 24.453C15.3421 24.481 13.5281 22.713 13.5001 20.505C13.4721 18.296 15.2401 16.482 17.4481 16.454C19.6571 16.426 21.4711 18.194 21.4991 20.402C21.5281 22.611 19.7601 24.424 17.5511 24.453ZM40.6731 12.59C40.4771 12.399 40.1601 12.402 39.9661 12.6L37.4591 15.171C37.3671 15.266 37.3151 15.394 37.3171 15.526C37.3191 15.658 37.3731 15.785 37.4681 15.878L38.6521 17.031C38.4461 17.437 38.2771 17.862 38.1471 18.299L36.4941 18.32C36.3611 18.322 36.2341 18.376 36.1411 18.471C36.0491 18.566 35.9971 18.694 35.9991 18.826L36.0451 22.417C36.0491 22.692 36.2911 22.945 36.5511 22.91L38.2051 22.889C38.3481 23.323 38.5271 23.743 38.7431 24.142L37.5891 25.327C37.3971 25.524 37.4011 25.841 37.5991 26.034L40.1701 28.541C40.2631 28.632 40.3891 28.683 40.5191 28.683C40.5211 28.683 40.5231 28.683 40.5261 28.683C40.6581 28.681 40.7851 28.627 40.8781 28.532L42.0311 27.348C42.4371 27.554 42.8621 27.723 43.2991 27.853L43.3201 29.506C43.3221 29.639 43.3761 29.766 43.4711 29.859C43.5631 29.949 43.6891 30 43.8191 30C43.8211 30 43.8231 30 43.8261 30L47.4171 29.954C47.6921 29.95 47.9131 29.724 47.9101 29.448L47.8891 27.794C48.3231 27.651 48.7431 27.472 49.1421 27.256L50.3271 28.41C50.5241 28.603 50.8401 28.599 51.0341 28.4L53.5411 25.829C53.6331 25.734 53.6851 25.606 53.6831 25.474C53.6811 25.342 53.6271 25.215 53.5321 25.122L52.3481 23.969C52.5541 23.563 52.7231 23.138 52.8531 22.701L54.5061 22.68C54.6391 22.678 54.7661 22.624 54.8591 22.529C54.9511 22.434 55.0031 22.306 55.0011 22.174L54.9551 18.583C54.9501 18.308 54.7441 18.126 54.4491 18.09L52.7951 18.111C52.6521 17.677 52.4731 17.257 52.2571 16.858L53.4111 15.673C53.6031 15.476 53.5991 15.159 53.4011 14.966L50.8301 12.459C50.7371 12.368 50.6111 12.317 50.4811 12.317C50.4791 12.317 50.4771 12.317 50.4741 12.317C50.3421 12.319 50.2151 12.373 50.1221 12.468L48.9691 13.652C48.5631 13.446 48.1381 13.277 47.7011 13.147L47.6801 11.494C47.6781 11.361 47.6241 11.234 47.5291 11.141C47.4361 11.051 47.3101 11 47.1811 11C47.1791 11 47.1771 11 47.1741 11L43.5831 11.046C43.3081 11.05 43.0871 11.276 43.0901 11.552L43.1111 13.206C42.6771 13.349 42.2571 13.528 41.8581 13.744L40.6731 12.59ZM45.4491 16.453C47.6581 16.425 49.4721 18.193 49.5001 20.401C49.5281 22.61 47.7601 24.424 45.5521 24.452C43.3431 24.48 41.5291 22.712 41.5011 20.504C41.4721 18.295 43.2401 16.482 45.4491 16.453Z" fill="black"/>
<path d="M32 50C34.2091 50 36 48.2091 36 46C36 43.7909 34.2091 42 32 42C29.7909 42 28 43.7909 28 46C28 48.2091 29.7909 50 32 50Z" fill="black"/>
<path d="M35 50H32H29C26.791 50 25 51.791 25 54V63H39V54C39 51.791 37.209 50 35 50Z" fill="black"/>
<path d="M55 50C57.2091 50 59 48.2091 59 46C59 43.7909 57.2091 42 55 42C52.7909 42 51 43.7909 51 46C51 48.2091 52.7909 50 55 50Z" fill="black"/>
<path d="M58 50H55H52C49.791 50 48 51.791 48 54V63H62V54C62 51.791 60.209 50 58 50Z" fill="black"/>
<path d="M9 50C11.2091 50 13 48.2091 13 46C13 43.7909 11.2091 42 9 42C6.79086 42 5 43.7909 5 46C5 48.2091 6.79086 50 9 50Z" fill="black"/>
<path d="M12 50H9H6C3.791 50 2 51.791 2 54V63H16V54C16 51.791 14.209 50 12 50Z" fill="black"/>
</svg>
