<svg width="64" height="64" viewBox="0 0 64 64" fill="none" xmlns="http://www.w3.org/2000/svg">
<path d="M49 5H38V7H49C55.065 7 60 11.935 60 18V24C60 30.065 55.065 35 49 35H35V31L27 36L35 41V37H49C56.168 37 62 31.168 62 24V18C62 10.832 56.168 5 49 5ZM4 24V18C4 11.935 8.935 7 15 7H28V11L36 6L28 1V5H15C7.832 5 2 10.832 2 18V24C2 31.168 7.832 37 15 37H24V35H15C8.935 35 4 30.065 4 24Z" fill="#24116A"/>
<path d="M26.506 22.681C26.639 22.679 26.766 22.625 26.859 22.53C26.951 22.435 27.003 22.307 27.001 22.175L26.955 18.584C26.95 18.309 26.744 18.127 26.449 18.091L24.795 18.112C24.652 17.678 24.473 17.258 24.257 16.859L25.411 15.674C25.603 15.477 25.599 15.16 25.401 14.967L22.83 12.46C22.737 12.369 22.611 12.318 22.481 12.318C22.479 12.318 22.477 12.318 22.474 12.318C22.342 12.32 22.215 12.374 22.122 12.469L20.969 13.653C20.563 13.447 20.138 13.278 19.701 13.148L19.68 11.495C19.678 11.362 19.624 11.235 19.529 11.142C19.437 11.051 19.311 11 19.181 11C19.179 11 19.177 11 19.174 11L15.583 11.046C15.308 11.05 15.087 11.276 15.09 11.552L15.111 13.206C14.677 13.349 14.257 13.528 13.858 13.744L12.673 12.59C12.477 12.399 12.16 12.402 11.966 12.6L9.45902 15.171C9.36702 15.266 9.31503 15.394 9.31703 15.526C9.31903 15.658 9.37303 15.785 9.46803 15.878L10.652 17.031C10.446 17.437 10.277 17.862 10.147 18.299L8.49403 18.32C8.36103 18.322 8.23402 18.376 8.14102 18.471C8.05002 18.565 7.99803 18.693 8.00003 18.826L8.04602 22.417C8.05002 22.692 8.29203 22.945 8.55203 22.91L10.206 22.889C10.349 23.323 10.528 23.743 10.744 24.142L9.59003 25.327C9.39803 25.524 9.40203 25.841 9.60003 26.034L12.171 28.541C12.264 28.632 12.39 28.683 12.52 28.683C12.522 28.683 12.524 28.683 12.527 28.683C12.659 28.681 12.786 28.627 12.879 28.532L14.032 27.348C14.438 27.554 14.863 27.723 15.3 27.853L15.321 29.506C15.323 29.639 15.377 29.766 15.472 29.859C15.564 29.949 15.69 30 15.819 30C15.821 30 15.823 30 15.826 30L19.417 29.954C19.692 29.95 19.913 29.724 19.91 29.448L19.889 27.794C20.323 27.651 20.743 27.472 21.142 27.256L22.327 28.41C22.524 28.603 22.84 28.599 23.034 28.4L25.541 25.829C25.633 25.734 25.685 25.606 25.683 25.474C25.681 25.342 25.627 25.215 25.532 25.122L24.348 23.969C24.554 23.563 24.723 23.138 24.853 22.701L26.506 22.681ZM17.551 24.453C15.342 24.481 13.528 22.713 13.5 20.505C13.472 18.296 15.24 16.482 17.448 16.454C19.657 16.426 21.471 18.194 21.499 20.402C21.528 22.611 19.76 24.424 17.551 24.453ZM40.673 12.59C40.477 12.399 40.16 12.402 39.966 12.6L37.459 15.171C37.367 15.266 37.315 15.394 37.317 15.526C37.319 15.658 37.373 15.785 37.468 15.878L38.652 17.031C38.446 17.437 38.277 17.862 38.147 18.299L36.494 18.32C36.361 18.322 36.234 18.376 36.141 18.471C36.049 18.566 35.997 18.694 35.999 18.826L36.045 22.417C36.049 22.692 36.291 22.945 36.551 22.91L38.205 22.889C38.348 23.323 38.527 23.743 38.743 24.142L37.589 25.327C37.397 25.524 37.401 25.841 37.599 26.034L40.17 28.541C40.263 28.632 40.389 28.683 40.519 28.683C40.521 28.683 40.523 28.683 40.526 28.683C40.658 28.681 40.785 28.627 40.878 28.532L42.031 27.348C42.437 27.554 42.862 27.723 43.299 27.853L43.32 29.506C43.322 29.639 43.376 29.766 43.471 29.859C43.563 29.949 43.689 30 43.819 30C43.821 30 43.823 30 43.826 30L47.417 29.954C47.692 29.95 47.913 29.724 47.91 29.448L47.889 27.794C48.323 27.651 48.743 27.472 49.142 27.256L50.327 28.41C50.524 28.603 50.84 28.599 51.034 28.4L53.541 25.829C53.633 25.734 53.685 25.606 53.683 25.474C53.681 25.342 53.627 25.215 53.532 25.122L52.348 23.969C52.554 23.563 52.723 23.138 52.853 22.701L54.506 22.68C54.639 22.678 54.766 22.624 54.859 22.529C54.951 22.434 55.003 22.306 55.001 22.174L54.955 18.583C54.95 18.308 54.744 18.126 54.449 18.09L52.795 18.111C52.652 17.677 52.473 17.257 52.257 16.858L53.411 15.673C53.603 15.476 53.599 15.159 53.401 14.966L50.83 12.459C50.737 12.368 50.611 12.317 50.481 12.317C50.479 12.317 50.477 12.317 50.474 12.317C50.342 12.319 50.215 12.373 50.122 12.468L48.969 13.652C48.563 13.446 48.138 13.277 47.701 13.147L47.68 11.494C47.678 11.361 47.624 11.234 47.529 11.141C47.436 11.051 47.31 11 47.181 11C47.179 11 47.177 11 47.174 11L43.583 11.046C43.308 11.05 43.087 11.276 43.09 11.552L43.111 13.206C42.677 13.349 42.257 13.528 41.858 13.744L40.673 12.59ZM45.449 16.453C47.658 16.425 49.472 18.193 49.5 20.401C49.528 22.61 47.76 24.424 45.552 24.452C43.343 24.48 41.529 22.712 41.501 20.504C41.472 18.295 43.24 16.482 45.449 16.453Z" fill="#24116A"/>
<path d="M32 50C34.2091 50 36 48.2091 36 46C36 43.7909 34.2091 42 32 42C29.7909 42 28 43.7909 28 46C28 48.2091 29.7909 50 32 50Z" fill="#24116A"/>
<path d="M35 50H32H29C26.791 50 25 51.791 25 54V63H39V54C39 51.791 37.209 50 35 50Z" fill="#24116A"/>
<path d="M55 50C57.2091 50 59 48.2091 59 46C59 43.7909 57.2091 42 55 42C52.7909 42 51 43.7909 51 46C51 48.2091 52.7909 50 55 50Z" fill="#24116A"/>
<path d="M58 50H55H52C49.791 50 48 51.791 48 54V63H62V54C62 51.791 60.209 50 58 50Z" fill="#24116A"/>
<path d="M9 50C11.2091 50 13 48.2091 13 46C13 43.7909 11.2091 42 9 42C6.79086 42 5 43.7909 5 46C5 48.2091 6.79086 50 9 50Z" fill="#24116A"/>
<path d="M12 50H9H6C3.791 50 2 51.791 2 54V63H16V54C16 51.791 14.209 50 12 50Z" fill="#24116A"/>
</svg>
