<svg width="96" height="36" viewBox="0 0 96 36" fill="none" xmlns="http://www.w3.org/2000/svg">
<path d="M0 0.00174334V27.9014L3.45881 27.9124V14.6264H11.7982V11.1145H3.45881V3.51184H14.3198V0L0 0.00174334Z" fill="black"/>
<path d="M20.5453 5.66542C21.7911 5.66542 22.801 4.61721 22.801 3.3242C22.801 2.03118 21.7911 0.982971 20.5453 0.982971C19.2995 0.982971 18.2896 2.03118 18.2896 3.3242C18.2896 4.61721 19.2995 5.66542 20.5453 5.66542Z" fill="black"/>
<path d="M18.7856 9.17719V27.907H22.2444V9.17719H18.7856Z" fill="black"/>
<path fill-rule="evenodd" clip-rule="evenodd" d="M35.0733 8.63074C30.4802 8.63074 27.2749 12.6625 27.2749 17.4494C27.2749 22.2362 30.4802 26.268 35.0733 26.268C37.176 26.268 38.9089 25.423 40.1702 24.0475V26.5411C40.1702 29.6444 37.8216 32.2381 34.7564 32.2381C33.6547 32.2381 32.56 31.7948 31.6879 31.1709L29.9549 34.2863C31.339 35.2125 32.9872 35.75 34.7564 35.75C39.6566 35.75 43.629 31.6271 43.629 26.5411V9.17702H40.1702V10.8512C38.9089 9.47569 37.176 8.63074 35.0733 8.63074ZM30.7337 17.4494C30.7337 14.4781 32.9235 12.1426 35.4492 12.1426C37.975 12.1426 40.1649 14.4781 40.1649 17.4494C40.1649 20.4207 37.975 22.7561 35.4492 22.7561C32.9235 22.7561 30.7337 20.4207 30.7337 17.4494Z" fill="black"/>
<path d="M56.0922 12.1426C54.047 12.1426 52.389 13.9414 52.389 16.0641V27.9068H48.9302V9.17702H52.389V10.8928C53.4026 9.53305 54.8955 8.63074 56.8441 8.63074C59.2679 8.63074 61.1278 9.88013 62.2053 11.7922C63.4031 9.94534 65.3573 8.63074 67.7093 8.63074C71.646 8.63074 74.0961 11.9272 74.1194 16.0056C74.1194 16.0179 74.1194 16.0303 74.1194 16.0426V16.0433V16.044V16.0446C74.1194 16.0511 74.1194 16.0576 74.1194 16.0641V27.9068H70.6606V16.0641C70.6606 13.9414 69.0026 12.1426 66.9574 12.1426C64.9122 12.1426 63.2542 13.9414 63.2542 16.0641V27.9068H59.7954V16.0641C59.7954 13.9414 58.1374 12.1426 56.0922 12.1426Z" fill="black"/>
<path fill-rule="evenodd" clip-rule="evenodd" d="M92.5412 11.3002C91.0025 9.65116 88.8952 8.63074 86.4507 8.63074C81.305 8.63074 77.6533 13.1525 77.6533 18.5419C77.6533 23.9314 81.305 28.4531 86.4507 28.4531C88.8952 28.4531 91.0025 27.4328 92.5412 25.7837V27.9068H96.0001V9.17702H92.5412V11.3002ZM81.1121 18.5419C81.1121 14.9664 83.7499 12.1426 86.8267 12.1426C89.9035 12.1426 92.5412 14.9664 92.5412 18.5419C92.5412 22.1175 89.9035 24.9413 86.8267 24.9413C83.7499 24.9413 81.1121 22.1175 81.1121 18.5419Z" fill="black"/>
</svg>
