<svg width="68" height="62" viewBox="0 0 68 62" fill="none" xmlns="http://www.w3.org/2000/svg">
<path d="M13 43H54V10H13V43ZM33.5065 27.92C30.8604 27.92 28.7076 25.6333 28.7076 22.8225C28.7076 20.4996 30.1783 18.5557 32.1733 17.9357V16.9999C32.1733 16.2151 32.7703 15.58 33.5065 15.58C34.2427 15.58 34.8397 16.2151 34.8397 16.9999V17.9369C36.8275 18.5582 38.293 20.501 38.293 22.8225C38.293 23.6074 37.6961 24.2425 36.9598 24.2425C36.2236 24.2425 35.6267 23.6074 35.6267 22.8225C35.6267 21.569 34.6756 20.5498 33.5065 20.5498C32.3309 20.5498 31.374 21.569 31.374 22.8225C31.374 24.0678 32.3309 25.08 33.5065 25.08C36.1455 25.08 38.293 27.3736 38.293 30.1913C38.293 32.506 36.8275 34.443 34.8397 35.0624V35.9987C34.8397 36.7836 34.2427 37.4186 33.5065 37.4186C32.7703 37.4186 32.1733 36.7836 32.1733 35.9987V35.0636C30.1783 34.4455 28.7076 32.5074 28.7076 30.1913C28.7076 29.4065 29.3046 28.7714 30.0408 28.7714C30.777 28.7714 31.374 29.4065 31.374 30.1913C31.374 31.4365 32.3309 32.4488 33.5065 32.4488C34.6756 32.4488 35.6267 31.4365 35.6267 30.1913C35.6267 28.9392 34.6756 27.92 33.5065 27.92Z" fill="#24116A"/>
<path d="M29.7173 49.9531L30.2353 51H34.7064L35.088 50.1252C35.756 48.6336 37.2145 47.6727 38.7821 47.6727H64V6.32485C64 2.83968 61.301 0 57.9886 0H9.025C5.69897 0 3 2.83968 3 6.32485V47.6727H26.105C27.6181 47.6727 29.0085 48.5476 29.7173 49.9531ZM9.81564 44.8043V8.60518C9.81564 7.80203 10.4291 7.17098 11.1788 7.17098H55.8212C56.5846 7.17098 57.1844 7.80203 57.1844 8.60518V44.8043C57.1844 45.5931 56.5846 46.2385 55.8212 46.2385H11.1788C10.4291 46.2385 9.81564 45.5931 9.81564 44.8043Z" fill="#24116A"/>
<path d="M68 52.3784L67.9864 56.773C67.9864 59.6526 65.6453 62 62.7598 62H5.24016C2.35466 62 0.0136242 59.6526 0.0136242 56.7594L0 52.3784C0 52.0099 0.136076 51.6687 0.394686 51.4095C0.653297 51.1502 0.993569 51 1.36109 51H26.6093C27.1129 51 27.5757 51.2866 27.8071 51.7234L29.1001 54.1663H36.9128L38.0424 51.7779C38.2602 51.314 38.7366 51 39.2674 51H66.6389C67.0064 51 67.3467 51.1502 67.6053 51.4095C67.8639 51.6687 68 52.0099 68 52.3784Z" fill="#24116A"/>
</svg>
