<svg width="64" height="64" viewBox="0 0 64 64" fill="none" xmlns="http://www.w3.org/2000/svg">
<path d="M15.5947 41.1595H48.3989V16.3699H15.5947V41.1595ZM32.002 29.8313C29.8848 29.8313 28.1624 28.1136 28.1624 26.0022C28.1624 24.2572 29.3391 22.7969 30.9354 22.3311V21.6282C30.9354 21.0386 31.413 20.5615 32.002 20.5615C32.5911 20.5615 33.0687 21.0386 33.0687 21.6282V22.332C34.6592 22.7988 35.8317 24.2582 35.8317 26.0022C35.8317 26.5917 35.3541 27.0688 34.765 27.0688C34.176 27.0688 33.6984 26.5917 33.6984 26.0022C33.6984 25.0605 32.9374 24.2949 32.002 24.2949C31.0614 24.2949 30.2958 25.0605 30.2958 26.0022C30.2958 26.9376 31.0614 27.698 32.002 27.698C34.1135 27.698 35.8317 29.4209 35.8317 31.5376C35.8317 33.2764 34.6592 34.7315 33.0687 35.1968V35.9001C33.0687 36.4897 32.5911 36.9667 32.002 36.9667C31.413 36.9667 30.9354 36.4897 30.9354 35.9001V35.1977C29.3391 34.7333 28.1624 33.2774 28.1624 31.5376C28.1624 30.948 28.64 30.4709 29.2291 30.4709C29.8182 30.4709 30.2958 30.948 30.2958 31.5376C30.2958 32.473 31.0614 33.2334 32.002 33.2334C32.9374 33.2334 33.6984 32.473 33.6984 31.5376C33.6984 30.597 32.9374 29.8313 32.002 29.8313Z" fill="black"/>
<path d="M29.0346 46.0588L29.4399 46.8374H32.9386L33.2372 46.1868C33.76 45.0774 34.9012 44.3627 36.1279 44.3627H55.8613V13.6108C55.8613 11.0187 53.7493 8.90674 51.1573 8.90674H12.8426C10.2399 8.90674 8.12793 11.0187 8.12793 13.6108V44.3627H26.2079C27.3919 44.3627 28.4799 45.0134 29.0346 46.0588ZM13.4613 42.2294V15.3067C13.4613 14.7094 13.9413 14.2401 14.5279 14.2401H49.4613C50.0586 14.2401 50.5279 14.7094 50.5279 15.3067V42.2294C50.5279 42.8161 50.0586 43.2961 49.4613 43.2961H14.5279C13.9413 43.2961 13.4613 42.8161 13.4613 42.2294Z" fill="black"/>
<path d="M58.6451 47.5733L58.6344 51.008C58.6344 53.2587 56.7998 55.0933 54.5385 55.0933H9.46113C7.1998 55.0933 5.36517 53.2587 5.36517 50.9973L5.35449 47.5733C5.35449 47.2853 5.46113 47.0186 5.6638 46.816C5.86647 46.6134 6.13314 46.496 6.42116 46.496H26.2078C26.6025 46.496 26.9652 46.72 27.1465 47.0613L28.1598 48.9706H34.2825L35.1678 47.104C35.3385 46.7413 35.7118 46.496 36.1278 46.496H57.5784C57.8665 46.496 58.1331 46.6134 58.3358 46.816C58.5385 47.0186 58.6451 47.2853 58.6451 47.5733Z" fill="black"/>
</svg>
