<svg width="29" height="30" viewBox="0 0 29 30" fill="none" xmlns="http://www.w3.org/2000/svg">
<path d="M21.925 29.1665C16.3113 29.159 10.9296 26.8581 6.96005 22.7683C2.99054 18.6785 0.757276 13.1337 0.75 7.34984C0.75 5.62151 1.41638 3.96397 2.60255 2.74186C3.78872 1.51975 5.39751 0.83317 7.075 0.83317C7.43022 0.830382 7.78484 0.863597 8.13375 0.932336C8.47105 0.983762 8.80264 1.06917 9.12375 1.18734C9.34959 1.26898 9.55084 1.40994 9.70759 1.59629C9.86434 1.78264 9.97116 2.00791 10.0175 2.24984L11.9012 10.7498C11.952 10.9806 11.9459 11.2207 11.8835 11.4484C11.821 11.676 11.7042 11.884 11.5438 12.0532C11.365 12.2515 11.3512 12.2657 9.66 13.1723C11.0144 16.2335 13.3906 18.6919 16.3563 20.0998C17.25 18.3432 17.2638 18.329 17.4562 18.1448C17.6205 17.9795 17.8223 17.8592 18.0433 17.7948C18.2642 17.7305 18.4973 17.7242 18.7212 17.7765L26.9712 19.7173C27.1985 19.7717 27.4087 19.8847 27.5819 20.0458C27.7551 20.2069 27.8856 20.4107 27.9613 20.6382C28.0773 20.9744 28.1647 21.3205 28.2225 21.6723C28.2778 22.0284 28.3054 22.3884 28.305 22.749C28.2796 24.4699 27.5945 26.1107 26.3992 27.313C25.2039 28.5154 23.5955 29.1817 21.925 29.1665Z" fill="#373F41"/>
</svg>
