<svg width="38" height="28" viewBox="0 0 38 28" fill="none" xmlns="http://www.w3.org/2000/svg">
<path d="M38 3.32605C36.6026 3.8728 35.0818 4.26629 33.5154 4.41954C35.1417 3.54324 36.3596 2.15883 36.9405 0.526052C35.4145 1.34944 33.7427 1.92681 31.9993 2.23256C31.2706 1.52604 30.3894 0.963199 29.4104 0.579101C28.4314 0.195002 27.3757 -0.00211981 26.3091 1.7191e-05C21.9935 1.7191e-05 18.5228 3.1728 18.5228 7.06628C18.5228 7.61303 18.5958 8.15978 18.7146 8.68581C12.2526 8.3793 6.48936 5.5793 2.65785 1.29232C1.95971 2.37387 1.59386 3.60533 1.59837 4.85859C1.59837 7.31066 2.97296 9.47279 5.0691 10.7444C3.83381 10.7003 2.62745 10.3923 1.54813 9.84557V9.93255C1.54813 13.3663 4.22425 16.2118 7.79089 16.8663C7.12122 17.024 6.43231 17.1048 5.74042 17.1065C5.23351 17.1065 4.754 17.061 4.26992 16.9988C5.25634 19.7988 8.12883 21.8325 11.5493 21.8988C8.87321 23.8 5.52121 24.9183 1.8815 24.9183C1.22846 24.9183 0.625646 24.8976 0 24.8314C3.45247 26.8402 7.54885 28 11.9603 28C26.2817 28 34.1183 17.2391 34.1183 7.89883C34.1183 7.59232 34.1183 7.28581 34.0954 6.9793C35.6116 5.97279 36.9405 4.72605 38 3.32605Z" fill="#373F41"/>
</svg>
